<svg width="35" height="35" viewBox="0 0 35 35" fill="none" xmlns="http://www.w3.org/2000/svg">
<rect width="35" height="35" rx="17.5" fill="#D9D9D9"/>
<path d="M17.2266 13.7717C18.2522 15.3751 19.6234 16.7374 21.2452 17.7532L14.3555 24.6438C13.9304 25.0689 13.7172 25.2814 13.4561 25.4211C13.1951 25.5607 12.9005 25.6198 12.3116 25.7375L9.23441 26.3528C8.9018 26.4193 8.73527 26.4523 8.64066 26.3577C8.54637 26.2631 8.57913 26.0969 8.64554 25.7649L9.26176 22.6877C9.37965 22.0983 9.43843 21.8033 9.57816 21.5422C9.7179 21.2812 9.93051 21.0688 10.3555 20.6438L17.2266 13.7717ZM21.6104 9.53638C22.1699 9.2591 22.8272 9.25913 23.3868 9.53638C23.6808 9.68211 23.9538 9.95499 24.4991 10.5002C25.0441 11.0453 25.3172 11.3176 25.4629 11.6116C25.7402 12.1711 25.7401 12.8284 25.4629 13.3879C25.3172 13.682 25.0443 13.955 24.4991 14.5002L22.7022 16.2961C21.0296 15.3448 19.6444 13.9684 18.6807 12.3176L20.4991 10.5002C21.0441 9.95521 21.3164 9.68215 21.6104 9.53638Z" fill="#222222"/>
</svg>
