<svg width="50" height="50" viewBox="0 0 50 50" fill="none" xmlns="http://www.w3.org/2000/svg">
<path d="M4.16602 24.9997L3.38515 24.375L2.88539 24.9997L3.38515 25.6244L4.16602 24.9997ZM22.916 25.9997C23.4683 25.9997 23.916 25.552 23.916 24.9997C23.916 24.4474 23.4683 23.9997 22.916 23.9997V25.9997ZM12.4993 14.583L11.7185 13.9583L3.38515 24.375L4.16602 24.9997L4.94688 25.6244L13.2802 15.2077L12.4993 14.583ZM4.16602 24.9997L3.38515 25.6244L11.7185 36.041L12.4993 35.4163L13.2802 34.7916L4.94688 24.375L4.16602 24.9997ZM4.16602 24.9997V25.9997H22.916V24.9997V23.9997H4.16602V24.9997Z" fill="#862B26"/>
<path d="M20.834 16.9419V11.7222C20.834 10.1038 20.834 9.29465 21.3079 8.73516C21.7819 8.17567 22.5801 8.04265 24.1764 7.77659L38.8476 5.33139C42.0907 4.79088 43.7122 4.52062 44.7731 5.41931C45.834 6.31801 45.834 7.96192 45.834 11.2498V38.7509C45.834 42.0387 45.834 43.6826 44.7731 44.5813C43.7122 45.48 42.0907 45.2098 38.8476 44.6693L24.1764 42.2241C22.5801 41.958 21.7819 41.825 21.3079 41.2655C20.834 40.706 20.834 39.8968 20.834 38.2785V33.4711" stroke="#862B26" stroke-width="2"/>
</svg>
