<svg width="82" height="50" viewBox="0 0 82 50" fill="none" xmlns="http://www.w3.org/2000/svg">
<path d="M7.75636 39.3273C3.51818 39.3273 1.47273 37.2164 1.47273 32.6018V21.4909C1.47273 16.8927 4.28727 14.7982 8.52545 14.7982C12.7636 14.7982 15.5782 16.8927 15.5782 21.4909V23.8473H11.1109V21.3273C11.1109 19.2655 10.26 18.2509 8.52545 18.2509C6.79091 18.2509 5.94 19.2655 5.94 21.4909V32.7655C5.94 34.8436 6.79091 35.8582 8.62364 35.8582C9.62182 35.8582 10.4236 35.6127 11.0945 35.1709V29.64H8.47636V26.22H15.5782V39H13.5L12.7964 36.8236C11.7 38.5091 9.91636 39.3273 7.75636 39.3273ZM18.6871 39V15.1091H23.1544V39H18.6871ZM32.5415 39.3273C28.3033 39.3273 26.2579 37.2164 26.2579 32.6018V21.4909C26.2579 16.8927 29.0724 14.7982 33.3106 14.7982C37.5488 14.7982 40.3633 16.8927 40.3633 21.4909V23.8473H35.8961V21.3273C35.8961 19.2655 35.0452 18.2509 33.3106 18.2509C31.5761 18.2509 30.7252 19.2655 30.7252 21.4909V32.7655C30.7252 34.8436 31.5761 35.8582 33.4088 35.8582C34.407 35.8582 35.2088 35.6127 35.8797 35.1709V29.64H33.2615V26.22H40.3633V39H38.2852L37.5815 36.8236C36.4852 38.5091 34.7015 39.3273 32.5415 39.3273ZM43.4723 39V15.1091H47.9396V39H43.4723Z" fill="#862B26"/>
<path d="M50.957 39.0301L50.9436 25.6701L55.9236 25.6651L55.9253 27.3251L52.7453 27.3283L52.7492 31.1883L55.7492 31.1853L55.7508 32.8453L52.7508 32.8483L52.757 39.0283L50.957 39.0301ZM56.9717 39.0241L56.9614 28.7441L58.7414 28.7423L58.7517 39.0223L56.9717 39.0241ZM56.9599 27.2241L56.9577 25.0841L58.7577 25.0823L58.7599 27.2223L56.9599 27.2241ZM62.3455 39.0187L60.5655 39.0205L60.5515 25.0805L62.3315 25.0787L62.3455 39.0187ZM64.1397 39.0169L64.1324 31.7169C64.1304 29.7369 64.1299 29.2169 64.1094 28.7369L65.8094 28.7352C65.8697 29.0352 65.87 29.3152 65.8903 29.6552C66.2096 28.9748 66.8092 28.5742 67.6692 28.5734C68.4892 28.5726 69.0496 28.912 69.2904 29.7118C69.6298 29.1114 70.1692 28.5709 71.2292 28.5698C72.3092 28.5687 73.2297 29.0878 73.2317 31.0878L73.2397 39.0078L71.4397 39.0096L71.4321 31.4296C71.4313 30.6696 71.2508 30.1898 70.5908 30.1904C69.7708 30.1913 69.5715 30.8715 69.5726 31.9315L69.5797 39.0115L67.7797 39.0133L67.7721 31.4933C67.7711 30.4733 67.4908 30.1936 66.9108 30.1941C66.0908 30.195 65.9115 30.8951 65.9126 31.9551L65.9197 39.0151L64.1397 39.0169ZM74.4354 35.8466L76.2554 35.8448L76.2559 36.3248C76.2567 37.1048 76.5172 37.6445 77.2172 37.6438C77.8572 37.6432 78.1368 37.2429 78.136 36.4429C78.1352 35.6429 77.8947 35.1831 76.6739 34.3844C75.273 33.4858 74.6123 32.7464 74.6108 31.2864C74.6092 29.6464 75.4681 28.5656 77.2081 28.5638C79.0881 28.5619 79.7892 29.6612 79.791 31.4012L79.7914 31.8412L78.0514 31.843L78.0508 31.243C78.05 30.463 77.8096 30.0832 77.2096 30.0838C76.6296 30.0844 76.3901 30.5046 76.3907 31.1446C76.3914 31.8046 76.6117 32.1044 77.5923 32.7434C79.2734 33.8218 79.9341 34.5411 79.9358 36.2411C79.9377 38.1611 79.0187 39.162 77.1587 39.1639C74.9587 39.1661 74.4373 37.7666 74.4359 36.3066L74.4354 35.8466Z" fill="#862B26"/>
</svg>
